<svg xmlns="http://www.w3.org/2000/svg" width="800" height="225">
 <g id="Layer_1">
  <title>Layer 1</title>
  <path stroke="#000" fill="#000000" stroke-width="0" d="m528.04696,105.43725l0,64.97828l0,0c0,8.51234 -6.55452,15.41295 -14.63993,15.41295c-8.0854,0 -14.63991,-6.90061 -14.63991,-15.41295l0,-64.97828l0,0c0,-8.51233 6.55451,-15.41294 14.63991,-15.41294c8.08542,0 14.63993,6.9006 14.63993,15.41294z" id="svg_39"/>
  <path transform="rotate(90.0038 261.671 136.885)" stroke="#000" fill="#000000" stroke-width="0" d="m269.3681,119.93887l0,33.89169l0,0c0,4.43991 -3.44616,8.03916 -7.69721,8.03916c-4.25105,0 -7.69721,-3.59926 -7.69721,-8.03916l0,-33.89169l0,0c0,-4.4399 3.44616,-8.03915 7.69721,-8.03915c4.25106,0 7.69721,3.59925 7.69721,8.03915z" id="svg_40"/>
  <ellipse stroke="#000" ry="20.13889" rx="20" id="svg_46" cy="188.54167" cx="113.54167" stroke-width="6" fill="none"/>
  <ellipse stroke="#000" ry="20.13889" rx="20" id="svg_47" cy="39.93056" cx="362.15278" stroke-width="6" fill="none"/>
  <ellipse stroke="#000" ry="20.13889" rx="20" id="svg_48" cy="161.45834" cx="650.34724" stroke-width="6" fill="none"/>
  <path stroke="#000" fill="#000000" stroke-width="0" d="m169.01919,35.29836l0,64.97828l0,0c0,8.51235 -6.55452,15.41295 -14.63993,15.41295c-8.0854,0 -14.63992,-6.90061 -14.63992,-15.41295l0,-64.97828l0,0c0,-8.51233 6.55452,-15.41294 14.63992,-15.41294c8.08542,0 14.63993,6.90061 14.63993,15.41294z" id="svg_49"/>
  <path transform="rotate(90.0038 724.865 57.7184)" stroke="#000" fill="#000000" stroke-width="0" d="m732.56257,40.77221l0,33.89168l0,0c0,4.43991 -3.44616,8.03916 -7.69722,8.03916c-4.25105,0 -7.6972,-3.59925 -7.6972,-8.03916l0,-33.89168l0,0c0,-4.43991 3.44615,-8.03916 7.6972,-8.03916c4.25106,0 7.69722,3.59925 7.69722,8.03916z" id="svg_50"/>
  <path transform="rotate(-90 587.845 43.5311)" stroke-dasharray="2,2" id="svg_51" d="m571.52583,26.16993l16.31943,0l0,0c9.01298,0 16.31943,7.77283 16.31943,17.36111c0,9.58828 -7.30646,17.36111 -16.31943,17.36111l-16.31943,0l0,-34.72222z" stroke-width="6" stroke="#000" fill="none"/>
  <path transform="rotate(90 400.345 182.42)" stroke-dasharray="2,2" id="svg_52" d="m384.02583,165.05883l16.31943,0l0,0c9.01298,0 16.31943,7.77283 16.31943,17.36111c0,9.58828 -7.30645,17.36111 -16.31943,17.36111l-16.31943,0l0,-34.72222z" stroke-width="6" stroke="#000" fill="none"/>
  <path transform="rotate(-179.791 53.8175 66.4477)" stroke-dasharray="2,2" id="svg_53" d="m37.49806,49.08661l16.31943,0l0,0c9.01298,0 16.31943,7.77283 16.31943,17.36111c0,9.58828 -7.30645,17.36111 -16.31943,17.36111l-16.31943,0l0,-34.72222z" stroke-width="6" stroke="#000" fill="none"/>
 </g>

</svg>